PathFileType   4   (X/Y/Z)
DataRate	CameraRate	NumFrames	NumMarkers	Units	OrigDataRate	OrigDataStartFrame	OrigNumFrames
120.0	120.0	4	37	mm	120.0	47	125
Frame#	Time	midhip	hip_r	hip_l	knee_r	knee_l	ankle_r	ankle_l	midasis	asis_r	asis_l	psis_r	psis_l	epicondLat_r	epicondLat_l	epicondMed_r	epicondMed_l	malleolusLat_r	malleolusLat_l	malleolusMedv_r	malleolusMedv_l	neck	subclavicle_r	subclavicle_l	sternalnotch	xyphoidprocess	thighwand_r	thighwand_l	upperleg1_r	upperleg1_l	upperleg2_r	upperleg2_l	shankwand_r	shankwand_l	lowerleg1_r	lowerleg1_l	toe_r	toe_l
 	 	X1	Y1	Z1	X2	Y2	Z2	X3	Y3	Z3	X4	Y4	Z4	X5	Y5	Z5	X6	Y6	Z6	X7	Y7	Z7	X8	Y8	Z8	X9	Y9	Z9	X10	Y10	Z10	X11	Y11	Z11	X12	Y12	Z12	X13	Y13	Z13	X14	Y14	Z14	X15	Y15	Z15	X16	Y16	Z16	X17	Y17	Z17	X18	Y18	Z18	X19	Y19	Z19	X20	Y20	Z20	X21	Y21	Z21	X22	Y22	Z22	X23	Y23	Z23	X24	Y24	Z24	X25	Y25	Z25	X26	Y26	Z26	X27	Y27	Z27	X28	Y28	Z28	X29	Y29	Z29	X30	Y30	Z30	X31	Y31	Z31	X32	Y32	Z32	X33	Y33	Z33	X34	Y34	Z34	X35	Y35	Z35	X36	Y36	Z36	X37	Y37	Z37

	47	0.50833	438.514	756.882	-274.626	424.040	760.256	-194.541	416.170	760.787	-349.970	613.496	415.910	-205.205	337.739	417.662	-327.315	738.558	77.783	-192.038	212.383	69.865	-306.997	549.134	830.128	-278.551	555.427	829.703	-154.269	542.841	830.552	-402.833	311.555	904.193	-229.792	305.433	906.483	-284.272	628.756	422.151	-135.631	329.498	414.860	-398.283	599.983	396.731	-276.787	343.362	411.782	-248.460	730.809	76.384	-154.352	196.416	73.520	-342.941	742.388	90.587	-229.007	212.287	89.989	-266.393	339.503	1322.338	-282.446	470.186	1259.908	-240.910	470.160	1263.899	-323.176	453.838	1256.494	-294.250	508.875	1185.173	-296.758	681.973	624.054	-160.421	555.857	551.273	-362.115	633.751	620.102	-172.296	513.920	577.587	-366.770	652.466	546.611	-178.128	481.451	513.901	-359.405	769.336	245.816	-172.267	226.722	171.635	-416.857	727.297	238.229	-182.748	231.289	186.286	-370.904	842.910	98.416	-183.210	305.942	46.394	-317.112
	48	0.51667	448.577	755.952	-273.872	434.167	759.435	-193.710	426.097	759.842	-349.129	623.580	415.399	-205.328	345.484	417.138	-327.679	748.031	76.687	-191.906	213.451	71.600	-307.658	559.151	829.243	-277.936	565.612	828.917	-153.511	552.691	829.570	-402.361	321.671	903.333	-228.752	315.493	905.574	-283.179	638.220	421.103	-135.576	336.871	414.724	-398.617	609.281	397.825	-279.126	349.279	413.045	-248.375	740.874	75.556	-154.094	197.664	75.546	-343.651	750.796	89.354	-229.073	213.798	91.490	-267.099	348.659	1321.411	-281.214	479.605	1258.672	-240.049	479.740	1262.792	-322.064	463.257	1255.519	-293.241	518.352	1184.002	-295.828	692.001	622.313	-158.397	564.287	549.970	-362.961	644.541	619.505	-170.560	522.429	576.098	-367.405	662.592	544.888	-177.438	488.581	512.404	-359.818	778.955	244.869	-173.883	230.123	173.259	-417.497	736.906	237.403	-183.415	234.722	187.282	-371.553	852.564	97.662	-185.010	306.451	46.514	-317.159
	49	0.52500	458.698	755.142	-273.052	444.406	758.677	-192.851	436.158	758.985	-348.261	633.606	414.825	-205.279	353.483	416.611	-328.002	756.292	75.195	-191.900	214.628	73.551	-308.371	569.294	828.430	-277.265	575.906	828.183	-152.673	562.682	828.677	-401.857	331.891	902.546	-227.788	325.708	904.739	-282.158	647.622	420.009	-135.358	344.572	414.566	-398.915	618.693	397.783	-278.826	351.497	417.983	-246.847	749.698	74.308	-153.979	199.034	77.800	-344.413	758.875	87.526	-229.210	214.870	93.546	-267.788	358.236	1320.496	-280.161	488.779	1258.080	-238.620	489.538	1262.049	-320.595	472.770	1254.617	-292.184	528.031	1183.349	-293.941	702.226	620.697	-156.210	572.986	548.795	-363.589	654.077	619.107	-168.533	530.569	575.201	-367.412	672.169	543.461	-175.956	493.025	510.785	-359.324	787.932	243.327	-175.387	233.698	175.030	-418.127	745.745	236.064	-184.524	238.117	188.834	-372.218	860.939	96.025	-186.768	307.056	46.667	-317.259
	50	0.53333	468.909	754.426	-272.151	454.757	757.997	-191.951	446.353	758.229	-347.353	643.533	414.188	-205.048	361.755	416.088	-328.267	763.402	73.403	-191.998	215.960	75.726	-309.128	579.565	827.701	-276.525	586.312	827.515	-151.755	572.818	827.887	-401.294	342.218	901.854	-226.888	336.062	904.000	-281.204	656.947	418.885	-134.975	352.622	414.391	-399.161	629.683	397.263	-278.355	367.472	408.136	-249.749	757.331	72.723	-153.986	200.566	80.291	-345.217	765.614	84.966	-229.392	216.273	95.760	-268.503	367.869	1319.610	-278.751	498.099	1257.797	-237.111	499.366	1261.234	-319.568	482.348	1253.811	-291.077	537.807	1182.764	-291.916	712.615	619.224	-153.916	581.972	547.736	-363.980	664.374	618.169	-166.794	538.827	574.565	-367.358	682.411	542.293	-174.339	504.934	510.034	-360.693	796.300	241.283	-176.722	237.468	176.957	-418.737	753.083	233.634	-185.576	241.964	190.727	-372.762	868.123	93.498	-188.405	307.759	46.852	-317.422
